<?xml version="1.0" standalone="no"?>
<!DOCTYPE svg PUBLIC "-//W3C//DTD SVG 20010904//EN"
 "http://www.w3.org/TR/2001/REC-SVG-20010904/DTD/svg10.dtd">
<svg version="1.0" xmlns="http://www.w3.org/2000/svg"
 width="2244.000000pt" height="2244.000000pt" viewBox="0 0 2244.000000 2244.000000"
 preserveAspectRatio="xMidYMid meet">
<metadata>
Created by potrace 1.14, written by Peter Selinger 2001-2017
</metadata>
<g transform="translate(0.000000,2244.000000) scale(0.100000,-0.100000)"
fill="#000000" stroke="none">
<path d="M2620 11170 l0 -8650 8650 0 8650 0 0 8650 0 8650 -8650 0 -8650 0 0
-8650z m17270 6480 l0 -2150 -2145 0 -2145 0 0 2150 0 2150 2145 0 2145 0 0
-2150z m-8640 -2160 l0 -4300 -4300 0 -4300 0 0 4300 0 4300 4300 0 4299 0 1
-4300z m1701 4280 c-73 -17 -107 -17 -95 1 3 5 0 9 -6 9 -6 0 -9 -8 -6 -18 5
-15 -3 -21 -46 -32 -29 -8 -59 -14 -65 -14 -7 1 -13 -2 -13 -8 0 -5 -4 -7 -9
-3 -5 3 -12 1 -16 -5 -3 -5 -15 -10 -25 -10 -11 0 -58 -18 -105 -39 -47 -22
-85 -37 -85 -33 0 3 -5 1 -12 -6 -7 -7 -20 -12 -31 -12 -10 0 -16 -4 -13 -9 7
-11 -43 -33 -57 -25 -7 4 -9 3 -4 -1 7 -8 -101 -83 -126 -88 -7 -1 -18 -10
-26 -20 -7 -10 -20 -16 -28 -13 -8 3 -12 2 -9 -3 7 -11 -52 -53 -64 -46 -6 4
-9 2 -8 -3 4 -14 -102 -103 -113 -96 -5 3 -8 1 -7 -4 5 -14 -105 -122 -124
-122 -11 0 -15 -5 -12 -14 3 -7 -9 -25 -26 -40 -17 -14 -29 -26 -25 -26 3 0
-5 -11 -17 -24 -13 -13 -27 -21 -32 -18 -5 3 -6 0 -3 -5 8 -13 -92 -139 -107
-135 -6 2 -8 0 -4 -3 10 -10 -21 -67 -32 -60 -5 3 -12 0 -16 -6 -4 -8 -3 -9 4
-5 18 11 14 -2 -12 -40 -13 -20 -26 -32 -28 -27 -3 4 -3 2 -2 -5 5 -17 -31
-74 -41 -64 -5 4 -5 2 -1 -5 8 -15 -55 -144 -67 -136 -6 3 -7 2 -4 -4 7 -11
-70 -215 -86 -224 -5 -4 -7 -11 -4 -16 3 -5 0 -29 -8 -54 -13 -43 -13 -43 -23
-19 -8 20 -10 12 -10 -45 0 -38 -4 -92 -10 -120 -7 -34 -10 224 -11 833 l-1
882 873 -1 c865 0 871 -1 798 -19z m694 10 c300 -37 480 -88 720 -205 611
-296 1054 -880 1172 -1545 23 -126 26 -174 27 -370 0 -170 -4 -253 -18 -340
-92 -591 -430 -1122 -921 -1448 -522 -347 -1142 -452 -1741 -296 -354 92 -738
315 -990 576 -249 257 -450 613 -538 951 -155 595 -53 1212 286 1727 89 137
158 222 272 335 351 349 822 573 1286 611 41 4 77 8 79 10 8 8 297 3 366 -6z
m340 0 c22 0 388 3 813 6 l772 5 -1 -868 0 -868 -20 78 c-10 44 -17 83 -14 87
3 5 1 10 -4 12 -5 1 -11 17 -13 33 -2 17 -7 33 -11 36 -4 3 -9 19 -10 35 -1
16 -6 32 -10 35 -5 3 -10 12 -11 20 -2 8 -8 26 -14 41 -6 15 -9 35 -5 45 5 12
3 14 -7 8 -10 -6 -12 -4 -7 8 3 10 3 17 -2 17 -9 0 -47 81 -43 92 1 5 -2 8 -7
8 -11 0 -37 61 -33 79 2 7 -1 10 -6 7 -12 -7 -24 22 -15 36 3 7 1 8 -5 4 -6
-4 -17 5 -26 21 -23 46 -145 213 -203 281 -30 34 -52 62 -48 62 4 0 -7 12 -24
26 -17 14 -28 31 -24 36 3 6 2 8 -4 5 -12 -8 -96 77 -86 87 5 4 1 6 -7 4 -10
-2 -14 4 -12 17 2 16 1 17 -7 5 -9 -13 -14 -12 -33 9 -13 13 -17 20 -9 16 10
-6 12 -4 7 4 -4 6 -11 9 -15 7 -4 -3 -38 20 -77 51 -84 67 -163 122 -250 172
-35 21 -61 41 -57 46 5 4 3 5 -4 2 -15 -9 -45 2 -37 14 3 5 -3 6 -12 2 -10 -3
-15 -2 -12 3 4 5 -5 10 -18 10 -30 2 -56 22 -47 37 3 6 1 7 -5 3 -18 -11 -61
5 -67 25 -4 10 -11 19 -17 19 -6 0 -6 -6 2 -15 11 -13 10 -14 -4 -9 -9 3 -16
10 -16 16 0 5 -5 6 -11 2 -14 -8 -129 26 -129 38 0 5 -4 7 -9 4 -4 -3 -59 8
-122 25 -86 22 -101 28 -59 24 30 -4 73 -6 95 -5z m-2683 -2800 c7 0 9 15 5
45 -11 79 15 47 54 -65 20 -58 46 -127 58 -153 24 -56 25 -61 9 -51 -7 4 -8 3
-4 -5 4 -6 11 -9 15 -6 11 6 33 -44 25 -57 -4 -6 -3 -8 3 -5 5 3 22 -19 37
-50 34 -70 115 -197 179 -283 44 -59 47 -65 31 -77 -10 -7 -13 -13 -8 -13 6 0
15 5 20 10 8 8 15 6 25 -6 11 -13 11 -18 1 -21 -6 -3 -9 -9 -6 -15 4 -7 9 -6
14 2 5 8 17 0 36 -25 33 -42 174 -185 174 -177 0 3 15 -8 33 -24 17 -17 51
-45 75 -63 24 -19 41 -36 38 -39 -3 -3 -12 1 -21 8 -8 7 -15 8 -15 2 0 -12 29
-24 41 -17 11 8 145 -84 141 -97 -1 -5 2 -7 7 -4 14 9 119 -57 114 -71 -2 -6
1 -14 6 -18 7 -3 8 0 5 9 -3 9 -3 16 0 16 12 0 191 -93 197 -102 3 -5 9 -9 13
-8 16 4 66 -12 61 -20 -3 -4 5 -6 17 -2 16 4 19 2 13 -8 -5 -8 -4 -11 2 -7 11
7 113 -21 113 -32 0 -4 12 -8 28 -8 48 0 82 -12 82 -31 0 -13 2 -14 9 -4 6 11
20 11 67 3 149 -26 200 -34 223 -35 15 -1 32 -5 40 -10 11 -7 12 -6 6 5 -7 11
-6 12 7 2 8 -7 17 -11 20 -8 9 9 163 13 230 6 37 -4 65 -3 62 1 -3 4 19 7 48
7 29 -1 82 5 118 11 36 7 76 14 90 16 83 12 128 22 147 32 12 7 26 11 30 11 4
-1 21 3 36 9 16 7 35 12 43 12 8 0 22 4 32 10 9 5 49 21 87 36 146 56 329 155
460 250 44 31 85 57 92 57 7 0 10 4 8 8 -3 3 2 12 10 19 8 7 15 10 15 7 0 -4
18 13 39 36 22 23 42 39 46 36 3 -4 0 -13 -7 -21 -22 -23 -22 -46 0 -23 10 11
18 27 17 35 -1 8 34 52 79 97 67 69 83 80 96 70 13 -10 13 -10 2 4 -10 14 -6
23 26 60 88 102 252 342 252 370 0 6 5 7 12 3 6 -4 8 -3 4 4 -8 14 38 104 49
95 4 -5 5 -3 2 4 -7 12 22 83 49 121 9 12 12 22 6 22 -7 0 -7 11 1 35 7 26 13
32 20 23 6 -9 7 -7 3 6 -9 27 14 96 33 96 12 0 13 2 3 8 -10 7 -7 29 12 108
l25 99 3 -885 3 -885 887 0 c488 0 884 -3 880 -7 -4 -4 -31 -9 -59 -10 -28 -1
-49 -6 -47 -10 3 -4 -2 -8 -11 -8 -10 0 -13 5 -9 13 5 8 2 8 -9 -2 -9 -7 -17
-10 -17 -6 0 4 -8 1 -17 -6 -11 -10 -14 -10 -9 -1 10 17 -2 15 -20 -3 -13 -13
-42 -20 -66 -16 -5 0 -8 -3 -8 -8 0 -8 -50 -29 -83 -35 -7 -1 -22 -7 -34 -14
-12 -7 -29 -9 -39 -5 -12 4 -15 3 -10 -5 6 -11 0 -14 -20 -11 -4 0 -11 -5 -15
-13 -7 -11 -11 -10 -19 2 -8 13 -13 9 -12 -10 0 -3 -47 -31 -105 -63 -83 -45
-108 -55 -115 -45 -7 10 -8 9 -4 -4 3 -12 -6 -24 -32 -39 -20 -12 -67 -44
-103 -70 -37 -26 -70 -46 -73 -43 -3 2 -4 1 -2 -2 6 -8 -106 -100 -117 -96 -5
1 -6 -2 -2 -7 5 -10 -30 -35 -50 -36 -5 0 -10 -5 -10 -12 0 -7 -24 -35 -53
-63 -29 -27 -50 -50 -47 -50 4 0 -19 -30 -50 -66 -31 -37 -63 -77 -72 -90 -8
-13 -20 -21 -26 -17 -5 3 -7 1 -4 -4 7 -12 -78 -148 -92 -148 -5 0 -13 -4 -18
-9 -5 -5 -3 -6 5 -2 18 11 16 6 -31 -83 -24 -45 -47 -78 -52 -74 -4 5 -5 3 -1
-4 3 -6 1 -23 -6 -38 -8 -19 -14 -22 -21 -13 -6 9 -7 8 -3 -4 3 -10 -8 -48
-23 -85 -16 -38 -35 -87 -41 -110 -7 -23 -16 -41 -19 -39 -3 2 -7 -6 -7 -17
-1 -12 -15 -73 -30 -134 -21 -81 -33 -113 -44 -113 -9 0 -11 -3 -5 -8 14 -10
20 -56 5 -47 -7 4 -9 -1 -5 -17 3 -12 1 -52 -4 -88 -15 -97 -13 -399 3 -525 8
-60 24 -150 35 -198 12 -49 19 -92 16 -97 -3 -5 1 -10 7 -13 10 -3 10 -10 -1
-28 -13 -22 -13 -23 1 -11 14 11 17 9 23 -18 12 -52 81 -222 134 -329 29 -56
49 -107 45 -113 -4 -6 -3 -8 4 -5 5 4 22 -14 38 -40 15 -27 44 -72 65 -102 21
-29 36 -59 32 -65 -3 -6 -3 -8 2 -4 11 10 48 -39 39 -53 -4 -7 -3 -9 3 -6 13
8 65 -57 55 -68 -4 -5 -2 -5 5 -1 7 4 19 -5 30 -19 10 -14 39 -47 65 -72 26
-25 45 -50 41 -56 -3 -6 -2 -7 4 -4 5 3 36 -17 69 -46 33 -29 78 -67 101 -85
29 -23 40 -38 37 -50 -5 -13 -4 -14 4 -4 7 11 24 4 78 -34 38 -26 68 -51 67
-55 -2 -5 4 -6 12 -3 8 4 17 0 20 -8 3 -8 11 -15 18 -15 17 -1 188 -99 182
-105 -3 -2 5 -4 17 -4 15 1 24 -7 29 -24 4 -15 7 -18 8 -8 1 15 5 15 34 6 17
-6 39 -17 48 -24 8 -8 25 -14 37 -14 12 0 22 -3 22 -7 0 -5 19 -9 42 -11 27
-2 52 -11 67 -25 13 -12 21 -16 17 -9 -8 13 10 17 18 4 3 -5 22 -9 42 -10 20
-1 42 -6 48 -11 6 -5 32 -11 56 -14 25 -2 -1320 -5 -2988 -8 l-3032 -4 2 3040
c1 1672 4 2976 5 2898 3 -96 7 -143 15 -143z m18 113 c0 -26 -16 -12 -18 15
-1 21 0 23 8 12 5 -8 10 -21 10 -27z m6610 -1624 c1062 -96 1884 -934 1959
-1994 72 -1030 -611 -1971 -1616 -2226 -337 -85 -705 -86 -1038 -3 -669 167
-1216 639 -1474 1271 -284 696 -181 1501 268 2100 82 110 261 295 366 380 242
195 567 355 859 423 231 53 456 70 676 49z m240 1 c0 -5 -2 -10 -4 -10 -3 0
-8 5 -11 10 -3 6 -1 10 4 10 6 0 11 -4 11 -10z m719 -5 c119 -5 166 -4 171 5
5 8 85 8 321 0 220 -8 315 -8 317 -1 5 16 172 14 172 -1 0 -9 4 -8 10 2 6 10
9 -293 9 -865 -1 -781 -2 -873 -15 -815 -7 36 -23 96 -34 134 -12 37 -18 76
-15 84 3 9 3 13 -1 9 -9 -9 -56 112 -48 124 3 5 1 9 -4 9 -17 0 -23 32 -10 49
11 14 11 14 -4 3 -14 -11 -17 -10 -23 7 -3 12 -4 25 -1 30 3 5 -1 12 -10 15
-10 4 -14 14 -11 26 3 11 1 18 -4 14 -5 -3 -14 7 -19 23 -6 15 -17 40 -25 55
-9 15 -16 30 -15 33 1 20 -1 26 -8 21 -5 -3 -15 7 -23 22 -7 15 -21 38 -31 51
-10 13 -15 28 -11 35 3 6 3 8 -2 4 -4 -4 -32 27 -63 69 -30 43 -61 83 -68 91
-8 7 -12 17 -9 22 3 4 -3 14 -13 21 -16 13 -16 12 -3 -6 8 -11 -28 25 -80 79
-52 55 -93 104 -91 109 1 5 -1 6 -6 3 -4 -2 -35 18 -67 46 -69 59 -223 174
-278 207 -20 13 -34 27 -31 33 4 7 2 8 -4 4 -15 -9 -73 24 -65 37 3 6 1 7 -5
3 -18 -11 -61 14 -55 33 4 12 2 13 -4 3 -10 -14 -46 -5 -37 9 3 5 -2 6 -10 3
-21 -8 -20 5 2 23 9 9 4 8 -12 -2 -28 -17 -29 -17 -22 1 6 15 4 16 -5 7 -12
-12 -56 1 -70 20 -3 5 -8 7 -10 5 -9 -7 -149 48 -149 59 0 8 -14 13 -35 14
-19 1 -39 3 -45 4 -5 1 -20 3 -32 4 -19 1 -21 3 -8 12 12 8 9 9 -12 5 -20 -5
-28 -2 -28 7 0 11 44 13 233 11 127 -1 306 -5 396 -9z m1001 -3405 l0 -870
-867 0 c-476 0 -864 2 -862 4 2 2 20 6 39 10 32 5 121 24 145 30 6 2 24 6 40
10 17 4 47 14 68 22 45 17 61 18 51 2 -4 -7 -3 -8 5 -4 6 4 9 11 6 16 -3 4 2
11 11 14 8 3 12 2 9 -4 -11 -18 15 -10 36 11 16 16 23 18 35 8 12 -9 13 -9 9
2 -6 16 42 42 58 32 6 -3 7 -1 4 4 -4 6 0 14 9 17 23 9 36 7 29 -4 -3 -5 -1
-10 5 -10 6 0 10 8 8 18 -2 11 3 17 14 16 10 -1 16 2 13 6 -5 9 43 32 54 26 4
-3 13 0 21 6 12 8 12 9 -2 4 -31 -9 -20 1 30 30 26 15 85 54 132 88 47 34 92
61 100 61 8 0 15 5 15 12 0 16 115 114 126 107 5 -3 8 0 7 8 -2 7 3 12 10 10
8 -1 11 1 8 6 -7 12 48 64 59 55 4 -5 5 -3 2 3 -8 13 46 67 57 57 4 -4 4 0 1
8 -4 11 5 25 24 42 17 14 31 28 31 31 0 12 94 121 102 119 4 -2 7 0 6 5 -4 13
54 102 63 96 5 -3 6 1 3 9 -3 8 2 21 10 30 9 9 16 20 16 26 0 15 30 14 30 -1
1 -7 7 -2 15 12 8 14 14 32 14 40 0 10 -2 11 -6 3 -2 -7 -9 -13 -13 -13 -5 0
-3 15 4 33 34 86 50 116 59 110 6 -3 7 -1 3 5 -4 6 13 62 38 124 45 115 106
324 106 366 0 12 2 22 5 22 3 0 5 -391 5 -870z m-8630 -3045 l0 -2145 -2150 0
-2150 0 0 2145 0 2145 2150 0 2150 0 0 -2145z m4320 -15 l0 -2160 2160 0 2160
0 -2 -2147 -3 -2148 -4307 -3 -4308 -2 0 4310 0 4310 2150 0 2150 0 0 -2160z
m4310 10 l0 -2150 -2145 0 -2145 0 0 2150 0 2150 2145 0 2145 0 0 -2150z
m-12950 -4315 l0 -2145 -2145 0 -2145 0 0 2145 0 2145 2145 0 2145 0 0 -2145z
m4320 -5 l0 -2150 -2150 0 -2150 0 0 2150 0 2150 2150 0 2150 0 0 -2150z"/>
<path d="M11223 18190 c0 -41 2 -58 4 -37 2 20 2 54 0 75 -2 20 -4 3 -4 -38z"/>
<path d="M12875 19770 c-3 -5 -2 -10 4 -10 5 0 13 5 16 10 3 6 2 10 -4 10 -5
0 -13 -4 -16 -10z"/>
<path d="M11945 19290 c3 -5 8 -10 11 -10 2 0 4 5 4 10 0 6 -5 10 -11 10 -5 0
-7 -4 -4 -10z"/>
<path d="M11865 19210 c-3 -5 -1 -10 4 -10 6 0 11 5 11 10 0 6 -2 10 -4 10 -3
0 -8 -4 -11 -10z"/>
<path d="M11780 19129 c0 -5 5 -7 10 -4 6 3 10 8 10 11 0 2 -4 4 -10 4 -5 0
-10 -5 -10 -11z"/>
<path d="M11620 18936 c0 -2 7 -6 15 -10 8 -3 15 -1 15 4 0 6 -7 10 -15 10 -8
0 -15 -2 -15 -4z"/>
<path d="M11428 18573 c7 -3 16 -2 19 1 4 3 -2 6 -13 5 -11 0 -14 -3 -6 -6z"/>
<path d="M14790 19360 c0 -5 5 -10 11 -10 5 0 7 5 4 10 -3 6 -8 10 -11 10 -2
0 -4 -4 -4 -10z"/>
<path d="M14960 19211 c0 -5 5 -13 10 -16 6 -3 10 -2 10 4 0 5 -4 13 -10 16
-5 3 -10 2 -10 -4z"/>
<path d="M15035 19130 c4 -6 11 -8 16 -5 14 9 11 15 -7 15 -8 0 -12 -5 -9 -10z"/>
<path d="M15148 19001 c10 -9 21 -23 25 -31 3 -8 4 -1 4 15 -2 24 -7 30 -25
31 -22 2 -22 1 -4 -15z"/>
<path d="M11331 16963 c-1 -16 5 -23 17 -23 10 0 13 3 6 8 -6 4 -14 14 -17 22
-4 10 -6 8 -6 -7z"/>
<path d="M11302 16920 c0 -14 2 -19 5 -12 2 6 2 18 0 25 -3 6 -5 1 -5 -13z"/>
<path d="M11430 16710 c-13 -8 -12 -10 3 -10 9 0 17 5 17 10 0 12 -1 12 -20 0z"/>
<path d="M11585 16441 c-3 -5 -1 -12 5 -16 5 -3 10 1 10 9 0 18 -6 21 -15 7z"/>
<path d="M15115 16250 c3 -5 8 -10 11 -10 2 0 4 5 4 10 0 6 -5 10 -11 10 -5 0
-7 -4 -4 -10z"/>
<path d="M15110 16220 c-8 -5 -12 -12 -9 -15 4 -3 12 1 19 10 14 17 11 19 -10
5z"/>
<path d="M14940 16049 c0 -5 5 -7 10 -4 6 3 10 8 10 11 0 2 -4 4 -10 4 -5 0
-10 -5 -10 -11z"/>
<path d="M14630 15820 c0 -5 7 -7 15 -4 8 4 15 8 15 10 0 2 -7 4 -15 4 -8 0
-15 -4 -15 -10z"/>
<path d="M12303 15755 c0 -8 4 -12 9 -9 5 3 6 10 3 15 -9 13 -12 11 -12 -6z"/>
<path d="M14530 15730 c0 -5 7 -7 15 -4 8 4 15 8 15 10 0 2 -7 4 -15 4 -8 0
-15 -4 -15 -10z"/>
<path d="M14476 15708 c3 -4 9 -8 15 -8 5 0 9 4 9 8 0 5 -7 9 -15 9 -8 0 -12
-4 -9 -9z"/>
<path d="M16370 15050 c0 -5 5 -10 11 -10 5 0 7 5 4 10 -3 6 -8 10 -11 10 -2
0 -4 -4 -4 -10z"/>
<path d="M16345 15020 c3 -5 8 -10 11 -10 2 0 4 5 4 10 0 6 -5 10 -11 10 -5 0
-7 -4 -4 -10z"/>
<path d="M16185 14890 c4 -6 11 -8 16 -5 14 9 11 15 -7 15 -8 0 -12 -5 -9 -10z"/>
<path d="M16060 14769 c0 -5 5 -7 10 -4 6 3 10 8 10 11 0 2 -4 4 -10 4 -5 0
-10 -5 -10 -11z"/>
<path d="M15662 14080 c0 -14 2 -19 5 -12 2 6 2 18 0 25 -3 6 -5 1 -5 -13z"/>
<path d="M15622 13960 c0 -14 2 -19 5 -12 2 6 2 18 0 25 -3 6 -5 1 -5 -13z"/>
<path d="M15542 13560 c0 -14 2 -19 5 -12 2 6 2 18 0 25 -3 6 -5 1 -5 -13z"/>
<path d="M15590 12870 c0 -5 5 -10 11 -10 5 0 7 5 4 10 -3 6 -8 10 -11 10 -2
0 -4 -4 -4 -10z"/>
<path d="M15712 12480 c0 -14 2 -19 5 -12 2 6 2 18 0 25 -3 6 -5 1 -5 -13z"/>
<path d="M15755 12400 c3 -5 8 -10 11 -10 2 0 4 5 4 10 0 6 -5 10 -11 10 -5 0
-7 -4 -4 -10z"/>
<path d="M15795 12310 c3 -5 8 -10 11 -10 2 0 4 5 4 10 0 6 -5 10 -11 10 -5 0
-7 -4 -4 -10z"/>
<path d="M16026 11952 c-3 -5 1 -9 9 -9 8 0 15 4 15 9 0 4 -4 8 -9 8 -6 0 -12
-4 -15 -8z"/>
<path d="M16101 11874 c0 -11 3 -14 6 -6 3 7 2 16 -1 19 -3 4 -6 -2 -5 -13z"/>
<path d="M16340 11630 c0 -6 7 -10 15 -10 8 0 15 2 15 4 0 2 -7 6 -15 10 -8 3
-15 1 -15 -4z"/>
<path d="M16450 11552 c0 -4 10 -9 22 -9 18 -2 20 0 8 7 -18 12 -30 13 -30 2z"/>
<path d="M16500 11510 c0 -5 5 -10 11 -10 5 0 7 5 4 10 -3 6 -8 10 -11 10 -2
0 -4 -4 -4 -10z"/>
<path d="M18938 15403 c23 -2 61 -2 85 0 23 2 4 4 -43 4 -47 0 -66 -2 -42 -4z"/>
<path d="M19578 15403 c23 -2 61 -2 85 0 23 2 4 4 -43 4 -47 0 -66 -2 -42 -4z"/>
<path d="M18618 15393 c23 -2 61 -2 85 0 23 2 4 4 -43 4 -47 0 -66 -2 -42 -4z"/>
<path d="M19258 15393 c23 -2 61 -2 85 0 23 2 4 4 -43 4 -47 0 -66 -2 -42 -4z"/>
<path d="M19837 13985 c-4 -8 -3 -16 1 -19 4 -3 9 4 9 15 2 23 -3 25 -10 4z"/>
<path d="M19862 12760 c0 -14 2 -19 5 -12 2 6 2 18 0 25 -3 6 -5 1 -5 -13z"/>
<path d="M19861 12687 c-1 -17 -28 -67 -43 -77 -4 -3 -4 -11 1 -18 10 -16 54
72 48 96 -4 16 -5 16 -6 -1z"/>
<path d="M19726 12357 c3 -10 9 -15 12 -12 3 3 0 11 -7 18 -10 9 -11 8 -5 -6z"/>
<path d="M19863 12100 c0 -47 2 -66 4 -42 2 23 2 61 0 85 -2 23 -4 4 -4 -43z"/>
<path d="M19340 11809 c0 -5 5 -7 10 -4 6 3 10 8 10 11 0 2 -4 4 -10 4 -5 0
-10 -5 -10 -11z"/>
<path d="M19160 11660 c0 -5 5 -10 11 -10 5 0 7 5 4 10 -3 6 -8 10 -11 10 -2
0 -4 -4 -4 -10z"/>
<path d="M19135 11630 c-3 -5 -1 -10 4 -10 6 0 11 5 11 10 0 6 -2 10 -4 10 -3
0 -8 -4 -11 -10z"/>
<path d="M19154 11608 l-19 -23 23 19 c21 18 27 26 19 26 -2 0 -12 -10 -23
-22z"/>
<path d="M19863 11460 c0 -47 2 -66 4 -42 2 23 2 61 0 85 -2 23 -4 4 -4 -43z"/>
<path d="M18902 11435 c-11 -12 -10 -15 3 -15 8 0 15 7 15 15 0 18 -2 18 -18
0z"/>
<path d="M18798 11393 c7 -3 16 -2 19 1 4 3 -2 6 -13 5 -11 0 -14 -3 -6 -6z"/>
<path d="M2778 2563 c23 -2 61 -2 85 0 23 2 4 4 -43 4 -47 0 -66 -2 -42 -4z"/>
<path d="M3418 2563 c23 -2 61 -2 85 0 23 2 4 4 -43 4 -47 0 -66 -2 -42 -4z"/>
<path d="M4058 2563 c23 -2 61 -2 85 0 23 2 4 4 -43 4 -47 0 -66 -2 -42 -4z"/>
<path d="M4698 2563 c23 -2 61 -2 85 0 23 2 4 4 -43 4 -47 0 -66 -2 -42 -4z"/>
<path d="M5338 2563 c23 -2 61 -2 85 0 23 2 4 4 -43 4 -47 0 -66 -2 -42 -4z"/>
<path d="M5978 2563 c23 -2 61 -2 85 0 23 2 4 4 -43 4 -47 0 -66 -2 -42 -4z"/>
<path d="M6618 2563 c23 -2 61 -2 85 0 23 2 4 4 -43 4 -47 0 -66 -2 -42 -4z"/>
</g>
</svg>
